<svg version="1" xmlns="http://www.w3.org/2000/svg" width="1066.667" height="1066.667" viewBox="0 0 800.000000 800.000000"><path d="M490 102.3c0 .7.5 1.8 1.2 2.5.9.9-.3.8-3.7-.3-6.7-2-9.2-1.9-10.5.4-1.4 2.7-1.4 2.8 2.3 3.6 2.7.6 2.9.8 1.2 1.4-2.9.9-8.7 4.1-10.7 5.9-1.1.9-1.6 2.3-1.2 3.7.3 1.3.1 2.6-.6 3-.8.5-.7 1.4.5 3.1.8 1.3 1.2 2.4.8 2.4-.4 0 .1.6 1.1 1.3 1.6 1.2 1.6 1.4-.4 3.5-1.7 1.8-1.8 2.2-.5 2.2 1.4 0 1.4.3-.1 2.5-.9 1.4-1.4 3.2-1 4 .4 1.2-.1 1.4-3.2 1-2-.3-32.4-3-67.5-6.1l-63.8-5.5-16.7 15c-9.2 8.2-56.7 50.9-105.7 94.9-49 43.9-89.1 79.8-89.2 79.7-.2 0 3.8-46.4 8.7-103 5-56.5 8.9-103 8.7-103.2-.4-.3-95.4-8.8-106.7-9.5l-4.4-.3-10.2 116c-5.6 63.8-10 116.2-9.9 116.3.2.2 44.8 4.6 99.2 9.8l98.8 9.3-99.7-.4-99.8-.4V627h112l.2-118.7.3-118.7 101.8 118.7L323 627h155.6L580 508.6l101.5-118.4.3 118.4.2 118.4h112V355h-17.5c-16.6 0-17.5-.1-17.5-1.9 0-1.1-2-3.6-4.5-5.7-2.6-2-4.2-4-3.7-4.3.8-.5 1.4-5.6 3.7-31.3.2-2.6 1.4-6.6 2.6-8.9 4.4-8.7 6-15.4 7.4-30.9.8-8.5 1.9-18.9 2.5-23 .7-4.1 1.3-13.4 1.4-20.5l.2-13 4.6-7.8c2.5-4.3 5.4-10.5 6.5-13.8 1-3.4 2.4-5.9 3.2-5.9 2.4 0-.1-26.3-3.6-37.5-2.4-7.7-6.8-11.5-17-14.5-2.3-.7-5.2-2.4-6.4-3.6-1.3-1.3-3-2.4-3.9-2.4-1.5 0-1.6-.6-.9-4.3.9-4.7-1-13.1-4.2-18.3-4.8-7.9-18.8-7.1-24 1.3-1.9 3-2.1 4.4-1.5 9.9.4 3.5 1.7 9.5 3 13.3l2.4 7-3.2 1.1c-4.8 1.6-9.3 6.8-11.6 13.5-2.9 8.3-5.7 20.4-7.5 32.1-1.3 8.9-1.3 10 .1 11 1.3 1.1 1.4 1.8 0 7-.8 3.3-2 9.5-2.6 13.9-.7 4.4-1.8 9.2-2.6 10.7-1.7 3.2-1.8 7.4-.3 8.3 1.5 1 .9 2-8.9 15.8-10.8 14.9-29.9 43.5-48.1 72-7.4 11.4-14.5 21.6-15.8 22.7l-2.5 1.9-4.5-3.4c-5.2-4-9.5-4.4-21.3-2.2-7.9 1.5-8.5 3-3.4 8.6l3.6 4.1H576.9l1.5-2.9c1.7-3.3 7.3-8.4 11.6-10.6 3.7-1.9 3.9-4.9.8-10.8-2.1-3.9-2.3-5.6-2.4-21.7-.2-12.7-.6-18.8-1.7-22.4l-1.6-4.9 16.2.6c22.6.9 36.1 4.5 44.5 12.1 6.5 5.9 9.6 4.2 4.9-2.7-1.2-1.8-4.1-7.3-6.2-12-3.5-7.6-4.3-8.7-6.5-8.7-1.4.1-3.6.7-5 1.5s-4.4 1.4-6.6 1.5c-5.2 0-22.3-4.4-27.2-7l-3.7-1.9 6.3-.1c6.7 0 12.3-1.8 15.9-5.2l2.2-2.1-3.8-4.6c-2.1-2.5-4.4-6.1-5.1-8-2.7-6.7-11.3-18.7-19.2-26.8l-8.1-8.1.7-5.8c.4-3.2 2.3-9.9 4.3-14.9 5.4-13.6 5.6-14.4 3.7-22.5-1-4.4-1.4-8.8-1-11.4.5-3.4.3-4.8-1.3-6.7-1.7-2.2-2.2-2.3-5-1.2-2.8 1-3.1.9-3.1-.8 0-1 2.2-4.3 4.9-7.3 9.5-10.5 9.5-23.7 0-29.5-4-2.4-22.1-2.8-25.6-.5-3.5 2.2-2.9 5.1.9 4.5 1.5-.2-2.5 7.5-4.9 9.5-1.6 1.4-2.3 2.6-1.8 3.5.5.7.9 4.2.9 7.8l.1 6.6 5.5.3c3 .2 5.9.7 6.3 1.1 1.7 1.7-.5 10.2-3 12.5-1.4 1.1-3.3 3.6-4.2 5.4l-1.7 3.3-4.2-7.5c-2.3-4-4.2-8-4.2-8.8 0-.8-.5-2.9-1.1-4.6-1-2.8-1.9-3.4-9-5.7-4.4-1.4-8.3-2.4-8.8-2.2-.4.1-4.5-1.6-8.9-3.8-7.5-3.6-8.2-4.2-8.2-6.8 0-2.8-2-5.8-6.9-10.1-1.3-1.1-3.6-3.4-5-5-7.2-8-9.1-9.6-11-9.6-1.2 0-2.1.6-2.1 1.3zm32.9 33.3c8 3.7 10.5 5.4 12.5 8.4 1.4 2.1 3.3 4.1 4.3 4.5 2.9 1 9.3 9.7 9.9 13.5.3 1.9 1.5 8 2.7 13.5 1.1 5.5 2.1 12.5 2.1 15.5l.1 5.5-4-.2c-2.2-.2-7.3-1.3-11.4-2.5-5.8-1.7-8.5-3.2-12.6-7-2.9-2.6-6.9-5.5-8.9-6.3-6.3-2.7-10.2-1.4-5.6 1.8 2 1.4 1.9 1.5-1.7 2.1-2.1.3-5.4.6-7.3.6-3.8 0-7.4 1.8-5.3 2.6.7.3 1 1.1.7 1.8-.3.7 1 1.9 2.8 2.8 8.8 4.2 8.6 4.2 12.7 3 6.6-2 8.8-1.5 16.9 4.2 4.2 2.9 10.6 6.8 14.1 8.5l6.3 3.2-.6 9.7c-.3 5.3-.8 17.3-1.2 26.7-.6 16.5-1.8 22.5-4.4 22.5-.6 0-1 .4-1 .9 0 1.6 9 3.4 14.9 2.8l5.8-.5 4.6 15.2c8.2 27 9.1 34.8 5.8 50.5-2 9.6-3.8 12.8-7.4 13.3-1.5.2-2.4 1.2-2.7 3-.3 1.8-27.8 33-82 93.2-44.8 49.7-81.8 90.4-82.3 90.3-1.6-.4-163.7-180.9-163.2-181.7.3-.5 54.8-48.4 121-106.5C424.8 192.4 479 144.4 479 143.9c0-.4.7-.6 1.5-.3s2 .2 2.7-.2c.7-.5 3.3-.9 5.7-1.1 2.4-.1 4.9-.7 5.5-1.3.5-.5 1.8-1 2.8-1 1 0 1.8-.4 1.8-.9 0-1.2 3.8-2.5 9.1-3 .9 0 2.1-1.2 2.7-2.6.6-1.4 1.4-2.5 1.7-2.5.3 0 5 2.1 10.4 4.6zm245.8 54.6c-.3.7-.5.2-.5-1.2s.2-1.9.5-1.3c.2.7.2 1.9 0 2.5zM715 220.4c0 2.3-2.7 6.2-3.7 5.3-.4-.4 2.8-7.7 3.4-7.7.2 0 .3 1.1.3 2.4zm-7.4 35.8c-2.8 16.5-5.6 40.7-5.6 48.2 0 4.1-.9 10.4-2 14.7-3.9 14.4-4.1 15.8-3 20.1 1 3.5.9 4.3-.8 6.2-2.6 2.9-4.2 6-4.2 8.5 0 2.1-.3 2.1-30 2.1-28.3 0-32.6-.4-28.6-2.7.8-.4 11.1-15.9 23.1-34.3 11.9-18.4 24.9-38 28.9-43.5 7.9-11.1 22.9-29.6 23.4-29 .2.2-.3 4.5-1.2 9.7zm31.2 9.2c.9 4.2.8 6.5-.3 10.7-3.6 13.4-4.8 23.2-4.2 34.4.5 9.2.3 12.4-1.4 18.5-1.1 4.1-2.2 10.4-2.5 14l-.5 6.6 6.5 2.4c3.8 1.5 6 2.8 5.3 3.2-.7.4-7.6.8-15.4.8H712v-3.9c0-2.3.5-4.1 1.3-4.4 2.1-.8 8.3-20.7 10.6-33.7 1.1-6.3 2.5-16.7 3.1-23 .6-6.3 1.8-14 2.6-17 1.6-5.8 5.9-14 7.3-14 .5 0 1.3 2.4 1.9 5.4zM28.4 648.1c-5.8 1.7-12.6 7.1-15.6 12.5-8.2 14.8-2.3 34 12.4 40.4 7.3 3.2 18.5 3.3 24.6.1 4.4-2.2 8.2-5.5 8.2-6.9 0-.4-2.2-2.4-4.9-4.4-4.3-3.3-5.1-3.5-6.2-2.2-2 2.5-6.5 4.4-10.2 4.4-8 0-15.3-9.4-14.3-18.3.6-6 3.8-11.2 7.9-13.4 4.5-2.3 11.1-2.1 14.6.4l2.8 2.1 4.4-3.5c2.4-1.9 4.5-3.8 4.7-4.3.4-1.2-5.7-5.5-9.7-6.9-4-1.3-14.2-1.3-18.7 0zM372.4 648c-5.9 1.8-12.6 7.3-15.6 12.6-8.2 14.8-2.3 34 12.4 40.4 7.3 3.2 19.4 3.3 29.6.2l7.2-2.3V670h-22v12h9v3.9c0 3.6-.3 4-3.6 5.1-4.8 1.6-12.9.8-16.2-1.7-1.5-1-3.7-3.9-5-6.4-4.1-7.7-1.4-18 5.9-22.3 4.7-2.8 12.4-2.6 17.7.4l4.4 2.5 3.9-4.5c2.1-2.5 3.7-4.9 3.5-5.5-.1-.5-2.4-2.1-5.1-3.4-3.9-2.1-6.5-2.6-13.9-2.8-5-.1-10.5.2-12.2.7zM445.5 649.4c-6.8 3.6-8.8 6.7-9.3 14.3-.4 6.2-.4 6.4 3.4 10.2 2.9 2.8 5.6 4.3 10.2 5.6 10.5 3 14.1 7.6 8.7 11.1-3.4 2.2-9.9 1.3-13.2-1.8l-2.4-2.3-4.4 5c-4.9 5.7-4.7 6.7 2 9.6 6.1 2.6 11.8 3.2 18.2 1.9 10.9-2.3 17.1-11.8 14.3-22-1.3-4.8-5.4-8.1-13-10.5-9.3-3-11.2-4.3-10.8-7.3.2-2 1.2-3 3.9-4 3.5-1.3 6-.8 12 2.5.4.2 2.5-1.9 4.8-4.6l4.2-5-4.3-2.2c-2.9-1.5-6.7-2.4-11.8-2.6-6.6-.4-8.1-.1-12.5 2.1zM669.5 648.8c-6.8 2.2-13.7 9.1-16 16.1-3.6 10.8-.8 23.6 6.6 30.9 10.2 10 29.8 10.4 38.8.8 1.4-1.4 2.3-2.7 2-2.9-.2-.2-2.6-2-5.3-4-4.7-3.5-5-3.6-6.2-1.8-3.6 5-13.5 5.3-18.6.4-6.1-5.7-7.4-13.7-3.5-21.3 4.1-8.2 13.8-11 20.7-6 2.4 1.8 2.5 1.8 7.2-1.9 2.6-2 4.6-4.1 4.4-4.6-.4-1.6-6.6-5.4-10.5-6.5-5.3-1.5-13.9-1.1-19.6.8zM762.5 649.4c-6.8 3.6-8.8 6.7-9.3 14.3-.4 6.2-.4 6.4 3.4 10.2 2.9 2.8 5.6 4.3 10.2 5.6 10.5 3 14.1 7.6 8.7 11.1-3.4 2.2-9.9 1.3-13.2-1.8l-2.4-2.3-4.4 5c-4.9 5.7-4.7 6.7 2 9.6 6.1 2.6 11.8 3.2 18.2 1.9 10.9-2.3 17.1-11.8 14.3-22-1.3-4.8-5.4-8.1-13-10.5-9.3-3-11.2-4.3-10.8-7.3.2-2 1.2-3 3.9-4 3.5-1.3 6-.8 12 2.5.4.2 2.5-1.9 4.8-4.6l4.2-5-4.3-2.2c-2.9-1.5-6.7-2.4-11.8-2.6-6.6-.4-8.1-.1-12.5 2.1zM65 675v27h34v-11H77v-43H65v27zM106 675v27h38v-11h-26v-10h23v-12h-23v-9h25v-12h-37v27zM169.6 651.2c-.8 1.8-6 13.6-11.5 26.3-5.6 12.6-10.1 23.3-10.1 23.7 0 .5 3.1.8 6.9.8h6.8l2-5.3 2-5.2h20.6l2 5.2 2 5.3h7.3c7.3 0 7.3 0 6.4-2.3-.6-1.2-5.9-13.2-11.8-26.7l-10.8-24.5-5.2-.3c-5.1-.3-5.3-.2-6.6 3zm9.4 22.1c1.2 3.2 2 6 1.7 6.3-.2.3-2.7.4-5.5.2l-4.9-.3 2.6-6.7c1.4-3.7 2.8-6.4 3.2-6 .3.4 1.6 3.3 2.9 6.5zM209 675v27h13v-36.5l11.3 18.3 11.2 18.2H261v-54h-12l-.2 18.1-.3 18.2-11.1-17.9-11-17.9-8.7-.3-8.7-.3V675zM271 675v27h13v-54h-13v27zM294 675v27h13l.2-17.7.3-17.6 10.9 17.6 10.9 17.7H346v-54h-13l-.2 17.5-.3 17.5-10.8-17.5-10.9-17.5H294v27zM482 675v27h38v-11h-26v-10h24v-12h-24v-9h25v-12h-37v27zM529 674.9V702h13v-10.5c0-10.5 0-10.5 2.4-10.5 2.1 0 3.3 1.6 8.1 10.5l5.7 10.5h7.4c4.1 0 7.4-.2 7.4-.5 0-.2-2.9-5.2-6.5-10.9l-6.4-10.5 3.6-1.8c7.1-3.5 9.8-15.3 5-22.4-3.9-5.9-8.2-7.2-24.9-7.7l-14.8-.4v27.1zm26-14.6c3 1.5 3.8 5.8 1.5 8.1-1.2 1.1-3.5 1.6-8.1 1.6H542v-11h5.3c2.8 0 6.3.6 7.7 1.3zM573.2 648.9c.2.5 5 12.6 10.8 27l10.5 26.1 5.4-.2 5.5-.3 10.8-25.9c5.9-14.3 10.8-26.3 10.8-26.8s-3-.8-6.6-.6l-6.6.3-6.5 16.5c-3.5 9-6.5 16.6-6.7 16.7-.1.2-3.2-7.3-6.7-16.7l-6.4-17h-7.3c-4.1 0-7.2.4-7 .9zM632 675v27h13v-54h-13v27zM707 675v27h39v-11h-26v-10h23v-12h-23v-9h25v-12h-38v27z"/></svg>